<svg xmlns="http://www.w3.org/2000/svg" version="1.1" xmlns:xlink="http://www.w3.org/1999/xlink" xmlns:svgjs="http://svgjs.dev/svgjs" width="2000" height="262" viewBox="0 0 2000 262"><g transform="matrix(1,0,0,1,-1.2121212121212466,-1.1792397351969726)"><svg viewBox="0 0 396 52" data-background-color="#2d196c" preserveAspectRatio="xMidYMid meet" height="262" width="2000" xmlns="http://www.w3.org/2000/svg" xmlns:xlink="http://www.w3.org/1999/xlink"><g id="tight-bounds" transform="matrix(1,0,0,1,0.2400000000000091,0.2340475810314615)"><svg viewBox="0 0 395.52 51.53190483793709" height="51.53190483793709" width="395.52"><g><svg viewBox="0 0 395.52 51.53190483793709" height="51.53190483793709" width="395.52"><g><svg viewBox="0 0 395.52 51.53190483793709" height="51.53190483793709" width="395.52"><g id="textblocktransform"><svg viewBox="0 0 395.52 51.53190483793709" height="51.53190483793709" width="395.52" id="textblock"><g><svg viewBox="0 0 395.52 51.53190483793709" height="51.53190483793709" width="395.52"><g transform="matrix(1,0,0,1,0,0)"><svg width="395.52" viewBox="4 -40.45 310.23 40.800000000000004" height="51.53190483793709" data-palette-color="#ffffff"><g class="wordmark-text-0" data-fill-palette-color="primary" id="text-0"><path d="M14.85-5L21.65-5Q23.5-5 24.25-6.05 25-7.1 25-8.4L25-8.4 25-31.3Q25-32.55 24.25-33.6 23.5-34.65 21.65-34.65L21.65-34.65 9.95-34.65 9.9-2.05Q9.9-0.95 9.05-0.3 8.2 0.35 6.95 0.35L6.95 0.35Q4 0.35 4-2.05L4-2.05 4-36.7Q4-38.5 4.93-39.1 5.85-39.7 7.15-39.7L7.15-39.7 22.9-39.7Q24.2-39.7 25.6-39.15 27-38.6 28.3-37.75L28.3-37.75 28.25-37.75Q29.55-36.8 30.25-35.27 30.95-33.75 30.95-31.75L30.95-31.75 30.95-8Q30.95-3.95 28.25-1.95L28.25-1.95Q26.95-1 25.58-0.48 24.2 0.05 22.9 0.05L22.9 0.05 14.5 0.05Q13.65 0.05 13.18-0.65 12.7-1.35 12.7-2.5L12.7-2.5Q12.7-5 14.85-5L14.85-5ZM43.7-27.9L43.7-2.1Q43.7 0.3 40.95 0.3L40.95 0.3Q38.15 0.3 38.15-2.1L38.15-2.1 38.15-27.9Q38.15-30.3 40.95-30.3L40.95-30.3Q43.7-30.3 43.7-27.9L43.7-27.9ZM44.75-36.6L44.75-36.6Q44.75-35 43.65-33.9 42.55-32.8 40.95-32.8L40.95-32.8Q39.35-32.8 38.22-33.9 37.1-35 37.1-36.6L37.1-36.6Q37.1-38.25 38.22-39.35 39.35-40.45 40.95-40.45L40.95-40.45Q42.55-40.45 43.65-39.35 44.75-38.25 44.75-36.6ZM56.15-21.75L56.15-2.1Q56.15 0.3 53.4 0.3L53.4 0.3Q50.65 0.3 50.65-2.1L50.65-2.1 50.65-22.2Q50.65-24.25 51.3-25.75 51.95-27.25 53.35-28.2L53.35-28.2Q56-30.1 58.65-30.1L58.65-30.1 66.7-30.1Q69.25-30.1 72-28.2L72-28.2Q74.7-26.3 74.7-22.2L74.7-22.2 74.7-2.1Q74.7 0.3 71.95 0.3L71.95 0.3Q69.2 0.3 69.2-2.1L69.2-2.1 69.2-21.75Q69.2-23.05 68.4-24.25L68.4-24.25 68.45-24.2Q67.8-25.4 65.8-25.4L65.8-25.4 59.55-25.4Q57.5-25.4 56.85-24.2L56.85-24.2Q56.15-23.15 56.15-21.75L56.15-21.75ZM90.04-17.5L97.39-17.5Q98.64-17.5 100.07-16.93 101.49-16.35 102.74-15.5L102.74-15.5 102.69-15.5Q103.99-14.55 104.69-13.05 105.39-11.55 105.39-9.45L105.39-9.45 105.39-7.95Q105.39-3.85 102.69-1.9L102.69-1.9Q101.39-0.9 100.04-0.45 98.69 0 97.39 0L97.39 0 88.89 0Q87.59 0 86.24-0.45 84.89-0.9 83.59-1.9L83.59-1.9Q80.89-3.8 80.89-7.95L80.89-7.95 80.89-8.55Q80.89-10.7 83.64-10.65L83.64-10.65Q86.44-10.65 86.44-8.55L86.44-8.55 86.44-8Q86.44-6.8 87.19-5.75 87.94-4.7 89.84-4.7L89.84-4.7 96.44-4.7Q98.34-4.7 99.09-5.75 99.84-6.8 99.84-8L99.84-8 99.84-9.4Q99.84-10.05 99.67-10.65 99.49-11.25 99.09-11.73 98.69-12.2 98.04-12.5 97.39-12.8 96.44-12.8L96.44-12.8 89.14-12.8Q86.59-12.8 83.79-14.6L83.79-14.6Q81.14-16.3 81.14-20.45L81.14-20.45 81.14-22.15Q81.14-24.15 81.84-25.68 82.54-27.2 83.84-28.15L83.84-28.15 83.79-28.15Q85.04-29 86.44-29.55 87.84-30.1 89.14-30.1L89.14-30.1 97.14-30.1Q98.44-30.1 99.82-29.55 101.19-29 102.49-28.15L102.49-28.15 102.44-28.15Q103.74-27.2 104.44-25.68 105.14-24.15 105.14-22.15L105.14-22.15 105.14-21.7Q105.14-20.65 104.44-20.18 103.74-19.7 102.39-19.65L102.39-19.65Q99.64-19.6 99.64-21.7L99.64-21.7 99.64-22.1Q99.64-23.35 98.87-24.38 98.09-25.4 96.24-25.4L96.24-25.4 90.04-25.4Q88.19-25.4 87.42-24.38 86.64-23.35 86.64-22.1L86.64-22.1 86.64-20.9Q86.64-19.6 87.42-18.55 88.19-17.5 90.04-17.5L90.04-17.5ZM119.89-30.1L127.89-30.1Q129.19-30.1 130.56-29.55 131.94-29 133.24-28.15L133.24-28.15 133.19-28.15Q134.49-27.2 135.19-25.68 135.89-24.15 135.89-22.15L135.89-22.15 135.89-7.95Q135.89-3.85 133.19-1.9L133.19-1.9Q130.54 0 127.89 0L127.89 0 119.89 0Q118.59 0 117.24-0.45 115.89-0.9 114.59-1.9L114.59-1.9Q111.89-3.8 111.89-7.95L111.89-7.95 111.89-22.15Q111.89-24.15 112.59-25.68 113.29-27.2 114.59-28.15L114.59-28.15 114.54-28.15Q115.79-29 117.19-29.55 118.59-30.1 119.89-30.1L119.89-30.1ZM120.79-4.7L126.99-4.7Q128.84-4.7 129.62-5.75 130.39-6.8 130.39-8L130.39-8 130.39-22.1Q130.39-23.35 129.62-24.38 128.84-25.4 126.99-25.4L126.99-25.4 120.79-25.4Q118.94-25.4 118.17-24.38 117.39-23.35 117.39-22.1L117.39-22.1 117.39-8Q117.39-6.8 118.17-5.75 118.94-4.7 120.79-4.7L120.79-4.7ZM147.69-21.75L147.69-2.1Q147.69 0.3 144.94 0.3L144.94 0.3Q142.19 0.3 142.19-2.1L142.19-2.1 142.19-22.2Q142.19-24.25 142.84-25.75 143.49-27.25 144.89-28.2L144.89-28.2Q147.54-30.1 150.19-30.1L150.19-30.1 158.24-30.1Q160.79-30.1 163.54-28.2L163.54-28.2Q166.24-26.3 166.24-22.2L166.24-22.2 166.24-2.1Q166.24 0.3 163.49 0.3L163.49 0.3Q160.74 0.3 160.74-2.1L160.74-2.1 160.74-21.75Q160.74-23.05 159.94-24.25L159.94-24.25 159.99-24.2Q159.34-25.4 157.34-25.4L157.34-25.4 151.09-25.4Q149.04-25.4 148.39-24.2L148.39-24.2Q147.69-23.15 147.69-21.75L147.69-21.75Z" fill="#ffffff" data-fill-palette-color="primary"></path><path d="M196.09-5L202.89-5Q204.74-5 205.49-6.05 206.24-7.1 206.24-8.4L206.24-8.4 206.24-31.3Q206.24-32.55 205.49-33.6 204.74-34.65 202.89-34.65L202.89-34.65 191.19-34.65 191.14-2.05Q191.14-0.95 190.29-0.3 189.44 0.35 188.19 0.35L188.19 0.35Q185.24 0.35 185.24-2.05L185.24-2.05 185.24-36.7Q185.24-38.5 186.16-39.1 187.09-39.7 188.39-39.7L188.39-39.7 204.14-39.7Q205.44-39.7 206.84-39.15 208.24-38.6 209.54-37.75L209.54-37.75 209.49-37.75Q210.79-36.8 211.49-35.27 212.19-33.75 212.19-31.75L212.19-31.75 212.19-8Q212.19-3.95 209.49-1.95L209.49-1.95Q208.19-1 206.81-0.48 205.44 0.05 204.14 0.05L204.14 0.05 195.74 0.05Q194.89 0.05 194.41-0.65 193.94-1.35 193.94-2.5L193.94-2.5Q193.94-5 196.09-5L196.09-5ZM233.39 0L226.84 0Q225.29 0 223.89-0.43 222.49-0.85 221.19-1.65L221.19-1.65 221.19-1.6Q218.74-3.15 218.74-7.3L218.74-7.3 218.74-9.75Q218.74-11.8 219.46-13.33 220.19-14.85 221.49-15.75L221.49-15.75 221.44-15.75Q222.69-16.6 224.09-17.03 225.49-17.45 226.79-17.45L226.79-17.45 237.83-17.45 237.83-22.1Q237.83-23.35 237.06-24.38 236.29-25.4 234.44-25.4L234.44-25.4 228.59-25.4Q226.69-25.4 225.96-24.48 225.24-23.55 225.24-22.3L225.24-22.3 225.24-21.9Q225.24-19.3 222.44-19.3L222.44-19.3Q219.64-19.3 219.64-21.9L219.64-21.9 219.64-22.35Q219.64-24.4 220.36-25.8 221.09-27.2 222.34-28.15L222.34-28.15 222.29-28.15Q223.59-29 225.01-29.55 226.44-30.1 227.74-30.1L227.74-30.1 235.33-30.1Q236.58-30.1 238.01-29.55 239.44-29 240.69-28.15L240.69-28.15 240.64-28.15Q241.94-27.2 242.64-25.68 243.33-24.15 243.33-22.15L243.33-22.15 243.33-2.1Q243.33 0.3 240.58 0.3L240.58 0.3Q240.04 0.3 239.56 0.25 239.08 0.2 238.71-0.03 238.33-0.25 238.11-0.68 237.89-1.1 237.89-1.8L237.89-1.8 237.83-12.75 227.74-12.75Q226.64-12.75 226.04-12.5 225.44-12.25 225.09-11.7L225.09-11.7Q224.69-10.85 224.51-10.38 224.34-9.9 224.34-9.3L224.34-9.3 224.34-7.35Q224.34-6.05 225.11-5.38 225.89-4.7 227.79-4.7L227.79-4.7 233.39-4.7Q235.24-4.7 235.24-2.35L235.24-2.35Q235.24-1.35 234.79-0.68 234.33 0 233.39 0L233.39 0ZM260.53 0.3L259.98 0.3Q259.88 0.3 259.73 0.28 259.58 0.25 259.43 0.25L259.43 0.25Q259.18 0.25 258.73 0.25L258.73 0.25Q258.28 0.25 257.88 0.2L257.88 0.2Q257.03 0.15 256.43-0.28 255.83-0.7 255.58-1.3L255.58-1.3 247.18-27.1Q246.93-28.15 247.46-28.98 247.98-29.8 249.13-30.2L249.13-30.2Q249.48-30.3 249.83-30.35 250.18-30.4 250.43-30.4L250.43-30.4Q251.98-30.4 252.58-28.7L252.58-28.7 256.23-17.35 260.08-5.45 267.58-28.7Q268.13-30.45 269.58-30.45L269.58-30.45Q270.13-30.45 270.98-30.2L270.98-30.2Q272.28-29.85 272.78-29.03 273.28-28.2 272.93-27.1L272.93-27.1 264.58-1.3Q264.13 0.1 262.23 0.2L262.23 0.2Q262.13 0.2 262.01 0.23 261.88 0.25 261.78 0.25L261.78 0.25Q261.38 0.3 261.08 0.3L261.08 0.3Q260.78 0.3 260.53 0.3L260.53 0.3ZM283.03-27.9L283.03-2.1Q283.03 0.3 280.28 0.3L280.28 0.3Q277.48 0.3 277.48-2.1L277.48-2.1 277.48-27.9Q277.48-30.3 280.28-30.3L280.28-30.3Q283.03-30.3 283.03-27.9L283.03-27.9ZM284.08-36.6L284.08-36.6Q284.08-35 282.98-33.9 281.88-32.8 280.28-32.8L280.28-32.8Q278.68-32.8 277.55-33.9 276.43-35 276.43-36.6L276.43-36.6Q276.43-38.25 277.55-39.35 278.68-40.45 280.28-40.45L280.28-40.45Q281.88-40.45 282.98-39.35 284.08-38.25 284.08-36.6ZM298.88-17.5L306.23-17.5Q307.48-17.5 308.9-16.93 310.33-16.35 311.58-15.5L311.58-15.5 311.53-15.5Q312.83-14.55 313.53-13.05 314.23-11.55 314.23-9.45L314.23-9.45 314.23-7.95Q314.23-3.85 311.53-1.9L311.53-1.9Q310.23-0.9 308.88-0.45 307.53 0 306.23 0L306.23 0 297.73 0Q296.43 0 295.08-0.45 293.73-0.9 292.43-1.9L292.43-1.9Q289.73-3.8 289.73-7.95L289.73-7.95 289.73-8.55Q289.73-10.7 292.48-10.65L292.48-10.65Q295.28-10.65 295.28-8.55L295.28-8.55 295.28-8Q295.28-6.8 296.03-5.75 296.78-4.7 298.68-4.7L298.68-4.7 305.28-4.7Q307.18-4.7 307.93-5.75 308.68-6.8 308.68-8L308.68-8 308.68-9.4Q308.68-10.05 308.5-10.65 308.33-11.25 307.93-11.73 307.53-12.2 306.88-12.5 306.23-12.8 305.28-12.8L305.28-12.8 297.98-12.8Q295.43-12.8 292.63-14.6L292.63-14.6Q289.98-16.3 289.98-20.45L289.98-20.45 289.98-22.15Q289.98-24.15 290.68-25.68 291.38-27.2 292.68-28.15L292.68-28.15 292.63-28.15Q293.88-29 295.28-29.55 296.68-30.1 297.98-30.1L297.98-30.1 305.98-30.1Q307.28-30.1 308.65-29.55 310.03-29 311.33-28.15L311.33-28.15 311.28-28.15Q312.58-27.2 313.28-25.68 313.98-24.15 313.98-22.15L313.98-22.15 313.98-21.7Q313.98-20.65 313.28-20.18 312.58-19.7 311.23-19.65L311.23-19.65Q308.48-19.6 308.48-21.7L308.48-21.7 308.48-22.1Q308.48-23.35 307.7-24.38 306.93-25.4 305.08-25.4L305.08-25.4 298.88-25.4Q297.03-25.4 296.25-24.38 295.48-23.35 295.48-22.1L295.48-22.1 295.48-20.9Q295.48-19.6 296.25-18.55 297.03-17.5 298.88-17.5L298.88-17.5Z" fill="#fb3126" data-fill-palette-color="secondary"></path></g></svg></g></svg></g></svg></g></svg></g><g></g></svg></g><defs></defs></svg><rect width="395.52" height="51.53190483793709" fill="none" stroke="none" visibility="hidden"></rect></g></svg></g></svg>